# xmcd
#
# Track frame offsets: 
#        150
#        10420
#        29883
#        49107
#        68335
#        85990
#        110120
#        124360
#        140566
#        148601
#
# Disc length: 2288 seconds
#
# Revision: 0
# Processed by: cddbd v1.5.2PL0 Copyright (c) Steve Scherf et al.
# Submitted via: ExactAudioCopy v1.3
#
DISCID=9608ee0a
DTITLE=Leeroy Stagger - Love Versus
DYEAR=2017
DGENRE=Rock
TTITLE0=I Want It All
TTITLE1=Love Versus
TTITLE2=Enemy Inside
TTITLE3=Crooked Old World
TTITLE4=Little Brother
TTITLE5=Run Rabbit Run
TTITLE6=Joe Strummer and Joey Ramone
TTITLE7=Living In The Future
TTITLE8=$1,500 A Day (Song For Elliot)
TTITLE9=Until The End Of Time
EXTD=
EXTT0=
EXTT1=
EXTT2=
EXTT3=
EXTT4=
EXTT5=
EXTT6=
EXTT7=
EXTT8=
EXTT9=
PLAYORDER=
